<svg width="150" height="150" viewBox="0 0 150 150" fill="none" xmlns="http://www.w3.org/2000/svg">
<g filter="url(#filter0_d)">
<path d="M75 137.667C38.18 137.667 8.33334 107.82 8.33334 70.9999C8.33334 34.1799 38.18 4.33325 75 4.33325C111.82 4.33325 141.667 34.1799 141.667 70.9999C141.667 107.82 111.82 137.667 75 137.667ZM75 124.333C89.1449 124.333 102.71 118.714 112.712 108.712C122.714 98.7103 128.333 85.1448 128.333 70.9999C128.333 56.855 122.714 43.2895 112.712 33.2876C102.71 23.2856 89.1449 17.6666 75 17.6666C60.8551 17.6666 47.2896 23.2856 37.2877 33.2876C27.2857 43.2895 21.6667 56.855 21.6667 70.9999C21.6667 85.1448 27.2857 98.7103 37.2877 108.712C47.2896 118.714 60.8551 124.333 75 124.333V124.333ZM65.8133 47.0999L98.34 68.7799C98.7058 69.0233 99.0058 69.3534 99.2132 69.7407C99.4207 70.128 99.5293 70.5605 99.5293 70.9999C99.5293 71.4393 99.4207 71.8719 99.2132 72.2592C99.0058 72.6465 98.7058 72.9765 98.34 73.2199L65.8067 94.8999C65.4055 95.1658 64.9399 95.3182 64.4592 95.3409C63.9784 95.3636 63.5005 95.2558 63.0761 95.0289C62.6516 94.802 62.2965 94.4645 62.0484 94.0521C61.8003 93.6397 61.6684 93.1679 61.6667 92.6866V49.3133C61.6676 48.8309 61.7993 48.3579 62.0477 47.9445C62.2962 47.5311 62.6521 47.1928 63.0777 46.9657C63.5032 46.7385 63.9823 46.6311 64.4641 46.6547C64.9458 46.6784 65.4121 46.8322 65.8133 47.0999V47.0999Z" fill="#F2682A"/>
</g>
<defs>
<filter id="filter0_d" x="0.333344" y="0.333252" width="149.333" height="149.333" filterUnits="userSpaceOnUse" color-interpolation-filters="sRGB">
<feFlood flood-opacity="0" result="BackgroundImageFix"/>
<feColorMatrix in="SourceAlpha" type="matrix" values="0 0 0 0 0 0 0 0 0 0 0 0 0 0 0 0 0 0 127 0" result="hardAlpha"/>
<feOffset dy="4"/>
<feGaussianBlur stdDeviation="4"/>
<feComposite in2="hardAlpha" operator="out"/>
<feColorMatrix type="matrix" values="0 0 0 0 0.94902 0 0 0 0 0.407843 0 0 0 0 0.164706 0 0 0 0.4 0"/>
<feBlend mode="normal" in2="BackgroundImageFix" result="effect1_dropShadow"/>
<feBlend mode="normal" in="SourceGraphic" in2="effect1_dropShadow" result="shape"/>
</filter>
</defs>
</svg>
